<svg width="48" height="48" viewBox="0 0 48 48" fill="none" xmlns="http://www.w3.org/2000/svg">
<path d="M18.214 10.896C19.41 7.396 24.246 7.29 25.664 10.578L25.784 10.898L27.398 15.618C27.7679 16.7005 28.3656 17.691 29.1509 18.5228C29.9361 19.3547 30.8906 20.0084 31.95 20.44L32.384 20.602L37.104 22.214C40.604 23.41 40.71 28.246 37.424 29.664L37.104 29.784L32.384 31.398C31.3012 31.7676 30.3102 32.3653 29.4781 33.1505C28.6459 33.9358 27.9918 34.8904 27.56 35.95L27.398 36.382L25.786 41.104C24.59 44.604 19.754 44.71 18.338 41.424L18.214 41.104L16.602 36.384C16.2324 35.3012 15.6348 34.3102 14.8495 33.478C14.0642 32.6459 13.1096 31.9918 12.05 31.56L11.618 31.398L6.89803 29.786C3.39603 28.59 3.29003 23.754 6.57803 22.338L6.89803 22.214L11.618 20.602C12.7005 20.2321 13.691 19.6344 14.5229 18.8491C15.3547 18.0639 16.0084 17.1094 16.44 16.05L16.602 15.618L18.214 10.896ZM22 12.188L20.388 16.908C19.8248 18.5586 18.9086 20.0666 17.7031 21.327C16.4976 22.5874 15.0319 23.5699 13.408 24.206L12.908 24.388L8.18803 26L12.908 27.612C14.5586 28.1752 16.0666 29.0915 17.327 30.2969C18.5874 31.5024 19.5699 32.9681 20.206 34.592L20.388 35.092L22 39.812L23.612 35.092C24.1752 33.4414 25.0915 31.9334 26.297 30.673C27.5024 29.4126 28.9681 28.4301 30.592 27.794L31.092 27.614L35.812 26L31.092 24.388C29.4414 23.8248 27.9334 22.9085 26.673 21.7031C25.4126 20.4976 24.4302 19.0319 23.794 17.408L23.614 16.908L22 12.188ZM38 4C38.3742 4 38.7408 4.10496 39.0583 4.30294C39.3758 4.50093 39.6314 4.78401 39.796 5.12L39.892 5.354L40.592 7.406L42.646 8.106C43.021 8.23339 43.3497 8.46923 43.5905 8.78363C43.8313 9.09803 43.9733 9.47684 43.9986 9.87204C44.0239 10.2672 43.9312 10.6611 43.7325 11.0036C43.5337 11.3461 43.2377 11.6219 42.882 11.796L42.646 11.892L40.594 12.592L39.894 14.646C39.7664 15.0209 39.5304 15.3494 39.2159 15.59C38.9014 15.8306 38.5225 15.9724 38.1273 15.9974C37.7321 16.0225 37.3384 15.9297 36.996 15.7308C36.6536 15.5318 36.378 15.2357 36.204 14.88L36.108 14.646L35.408 12.594L33.354 11.894C32.9791 11.7666 32.6504 11.5308 32.4096 11.2164C32.1688 10.902 32.0267 10.5232 32.0015 10.128C31.9762 9.73275 32.0688 9.33894 32.2676 8.99643C32.4664 8.65391 32.7623 8.37812 33.118 8.204L33.354 8.108L35.406 7.408L36.106 5.354C36.2409 4.95885 36.496 4.61582 36.8357 4.373C37.1754 4.13018 37.5825 3.99975 38 4Z" fill="white"/>
</svg>
