<svg width="42" height="38" viewBox="0 0 42 38" fill="none" xmlns="http://www.w3.org/2000/svg">
<path d="M11.2215 29.6147C9.84054 30.788 8.3972 31.3143 6.89154 31.1937C5.38554 31.073 4.08137 30.5467 2.97904 29.6147C1.87637 28.683 1.14004 27.4828 0.770037 26.0142C0.400037 24.5458 0.685037 23.0298 1.62504 21.4662L5.66504 14.7117C4.77304 13.9877 4.06437 13.0925 3.53904 12.0262C3.0137 10.9598 2.75104 9.8155 2.75104 8.59317C2.75104 6.39884 3.5267 4.5245 5.07804 2.97017C6.62937 1.41584 8.50004 0.638672 10.69 0.638672C12.8714 0.638672 14.7399 1.4165 16.2955 2.97217C17.8515 4.52817 18.6295 6.39867 18.6295 8.58367C18.6295 10.769 17.8515 12.6395 16.2955 14.1952C14.7399 15.7512 12.8714 16.5292 10.69 16.5292C10.3427 16.5292 9.99537 16.5062 9.64804 16.4602C9.30037 16.4142 8.9757 16.3412 8.67404 16.2412L4.52154 23.2192C4.07887 23.9538 3.9397 24.67 4.10404 25.3677C4.26837 26.0653 4.61487 26.6317 5.14354 27.0667C5.6722 27.5017 6.28987 27.744 6.99654 27.7937C7.7032 27.8433 8.37387 27.5968 9.00854 27.0542L30.79 8.34617C32.1794 7.16517 33.6352 6.62467 35.1575 6.72467C36.6802 6.82467 37.9907 7.34467 39.089 8.28467C40.1877 9.22434 40.918 10.4377 41.28 11.9247C41.642 13.4113 41.357 14.9308 40.425 16.4832L36.4465 23.2497C37.3389 23.9657 38.0477 24.8558 38.573 25.9202C39.0984 26.9848 39.361 28.1293 39.361 29.3537C39.361 31.5453 38.578 33.4175 37.012 34.9702C35.446 36.5225 33.5632 37.2987 31.3635 37.2987C29.1639 37.2987 27.2985 36.523 25.7675 34.9717C24.2362 33.4203 23.4705 31.5497 23.4705 29.3597C23.4705 27.1783 24.2362 25.3098 25.7675 23.7542C27.2985 22.1982 29.1645 21.4202 31.3655 21.4202C31.7005 21.4202 32.032 21.4348 32.36 21.4642C32.688 21.4935 33.014 21.5542 33.338 21.6462L37.49 14.7302C37.933 14.0032 38.0682 13.2893 37.8955 12.5887C37.7229 11.8877 37.3722 11.3215 36.8435 10.8902C36.3145 10.4588 35.697 10.2182 34.991 10.1682C34.2847 10.1182 33.6222 10.3605 33.0035 10.8952L11.2215 29.6147ZM10.698 13.1107C11.945 13.1107 13.0109 12.6675 13.8955 11.7812C14.7805 10.8952 15.223 9.82684 15.223 8.57617C15.223 7.32517 14.7779 6.25934 13.8875 5.37867C12.9975 4.49767 11.9272 4.05717 10.6765 4.05717C9.42554 4.05717 8.3597 4.50017 7.47904 5.38617C6.59804 6.27184 6.15754 7.34234 6.15754 8.59767C6.15754 9.84467 6.60054 10.9085 7.48654 11.7892C8.3722 12.6702 9.4427 13.1107 10.698 13.1107ZM31.3725 33.8922C32.6332 33.8922 33.71 33.4492 34.603 32.5632C35.496 31.6775 35.9425 30.607 35.9425 29.3517C35.9425 28.1047 35.496 27.0388 34.603 26.1542C33.7104 25.2692 32.6315 24.8267 31.3665 24.8267C30.1099 24.8267 29.0495 25.2718 28.1855 26.1622C27.3212 27.0522 26.889 28.1225 26.889 29.3732C26.889 30.6242 27.3212 31.69 28.1855 32.5707C29.0495 33.4517 30.1119 33.8922 31.3725 33.8922Z" fill="white"/>
</svg>
