<svg width="46" height="34" viewBox="0 0 46 34" fill="none" xmlns="http://www.w3.org/2000/svg">
<path d="M19.614 22.8208L15.664 18.8708C15.38 18.5868 15.0196 18.4531 14.583 18.4698C14.1466 18.4864 13.7871 18.6364 13.5045 18.9198C13.2218 19.2034 13.0805 19.5591 13.0805 19.9868C13.0805 20.4148 13.2218 20.7699 13.5045 21.0523L18.3585 25.8568C18.7021 26.1968 19.103 26.3668 19.561 26.3668C20.019 26.3668 20.4178 26.1968 20.7575 25.8568L30.1095 16.5048C30.3938 16.2198 30.536 15.8716 30.536 15.4603C30.536 15.0486 30.3943 14.7014 30.111 14.4188C29.8313 14.1361 29.4821 13.9948 29.0635 13.9948C28.6448 13.9948 28.2958 14.1361 28.0165 14.4188L19.614 22.8208ZM11.574 33.2993C8.56831 33.2993 6.00881 32.2476 3.89548 30.1443C1.78181 28.0409 0.724976 25.4843 0.724976 22.4743C0.724976 19.8263 1.56231 17.4891 3.23698 15.4628C4.91164 13.4364 7.05214 12.2153 9.65848 11.7993C10.3571 8.54192 11.9565 5.88426 14.4565 3.82626C16.9565 1.76826 19.8388 0.739258 23.1035 0.739258C26.8665 0.739258 30.0511 2.10159 32.6575 4.82626C35.2641 7.55092 36.5993 10.8253 36.663 14.6493V15.8493C39.087 15.8543 41.1283 16.6858 42.787 18.3438C44.4456 20.0021 45.275 22.0789 45.275 24.5743C45.275 26.9613 44.4176 29.0121 42.703 30.7268C40.988 32.4418 38.937 33.2993 36.55 33.2993H11.574ZM11.574 29.8928H36.526C37.9883 29.8928 39.2443 29.3694 40.294 28.3228C41.3436 27.2758 41.8685 26.0183 41.8685 24.5503C41.8685 23.0823 41.3436 21.8248 40.294 20.7778C39.2443 19.7311 37.9883 19.2078 36.526 19.2078H33.2685V14.8763C33.2685 11.8793 32.2651 9.34359 30.2585 7.26926C28.2518 5.19492 25.8008 4.15776 22.9055 4.15776C19.9925 4.15776 17.5268 5.20976 15.5085 7.31376C13.4905 9.41776 12.4815 11.9824 12.4815 15.0078H11.424C9.38698 15.0078 7.66231 15.7221 6.24998 17.1508C4.83764 18.5791 4.13148 20.3448 4.13148 22.4478C4.13148 24.5174 4.85431 26.2758 6.29998 27.7228C7.74564 29.1694 9.50364 29.8928 11.574 29.8928Z" fill="white"/>
</svg>
