<svg width="42" height="38" viewBox="0 0 42 38" fill="none" xmlns="http://www.w3.org/2000/svg">
<path d="M6.02148 37.407C5.10181 37.407 4.30415 37.0691 3.62848 36.3935C2.95281 35.7181 2.61498 34.9205 2.61498 34.0005V17.146C1.66598 16.2983 1.05331 15.275 0.776979 14.076C0.500979 12.877 0.546312 11.6906 0.912979 10.517L3.06298 3.76695C3.35365 2.80295 3.85615 2.04912 4.57048 1.50545C5.28515 0.96145 6.11165 0.689453 7.04998 0.689453H34.7C35.6953 0.689453 36.5713 0.969784 37.328 1.53045C38.0846 2.09078 38.6043 2.83629 38.887 3.76695L41.087 10.517C41.4536 11.6836 41.4866 12.8621 41.186 14.0525C40.8853 15.2431 40.2721 16.2585 39.3465 17.0985V34.0005C39.3465 34.9205 39.0076 35.7181 38.33 36.3935C37.652 37.0691 36.8515 37.407 35.9285 37.407H6.02148ZM25.5 15.393C26.4306 15.393 27.2203 15.0901 27.869 14.4845C28.518 13.8791 28.7758 13.1385 28.6425 12.2625L27.4045 4.10795H22.6075V12.2505C22.6075 13.0948 22.8803 13.8296 23.426 14.455C23.972 15.0803 24.6633 15.393 25.5 15.393ZM16.1445 15.393C17.0421 15.393 17.8078 15.0886 18.4415 14.48C19.0755 13.8713 19.3925 13.1281 19.3925 12.2505V4.10795H14.5955L13.3575 12.2625C13.2321 13.0971 13.4535 13.8276 14.0215 14.454C14.5898 15.08 15.2975 15.393 16.1445 15.393ZM7.05298 15.393C7.82698 15.393 8.49565 15.124 9.05898 14.586C9.62265 14.048 9.95048 13.3948 10.0425 12.6265L11.3305 4.10795H6.53348L4.25748 11.3245C3.93215 12.3435 4.05748 13.2763 4.63348 14.123C5.20981 14.9696 6.01631 15.393 7.05298 15.393ZM34.9 15.393C35.9346 15.393 36.7485 14.9775 37.3415 14.1465C37.9341 13.3158 38.0678 12.3751 37.7425 11.3245L35.4665 4.10795H30.6815L31.9575 12.6265C32.0495 13.3948 32.3768 14.048 32.9395 14.586C33.5021 15.124 34.1556 15.393 34.9 15.393ZM6.02148 34.0005H35.9285V18.7615C35.9855 18.7868 35.891 18.7995 35.645 18.7995H34.8985C34.1061 18.7995 33.331 18.6325 32.573 18.2985C31.815 17.9641 31.0573 17.4423 30.3 16.733C29.7586 17.3756 29.0871 17.8808 28.2855 18.2485C27.4835 18.6158 26.6061 18.7995 25.6535 18.7995C24.6671 18.7995 23.8136 18.6638 23.093 18.3925C22.3723 18.1211 21.6746 17.668 21 17.033C20.4863 17.6086 19.8475 18.047 19.0835 18.348C18.3198 18.649 17.4588 18.7995 16.5005 18.7995C15.4828 18.7995 14.5735 18.624 13.7725 18.273C12.9711 17.922 12.2803 17.4086 11.7 16.733C10.876 17.417 10.0726 17.9325 9.28998 18.2795C8.50765 18.6261 7.76098 18.7995 7.04998 18.7995H6.41098C6.21031 18.7995 6.08048 18.7868 6.02148 18.7615V34.0005Z" fill="white"/>
</svg>
