<svg width="40" height="40" viewBox="0 0 40 40" fill="none" xmlns="http://www.w3.org/2000/svg">
<path d="M13.6825 18.1109L18.099 13.6944L14.54 10.1479L13.1665 11.4979C12.8585 11.8136 12.5025 11.9676 12.0985 11.9599C11.6945 11.9519 11.3385 11.7979 11.0305 11.4979C10.7305 11.1899 10.5805 10.8319 10.5805 10.4239C10.5805 10.0159 10.7305 9.66192 11.0305 9.36192L12.4045 7.98792L8.73799 4.38342L4.33349 8.81192L13.6825 18.1109ZM31.15 35.6784L35.5665 31.2119L31.888 27.5454L30.526 28.9194C30.218 29.2194 29.86 29.3694 29.452 29.3694C29.044 29.3694 28.69 29.2154 28.39 28.9074C28.0823 28.5994 27.9285 28.2414 27.9285 27.8334C27.9285 27.4254 28.0823 27.0676 28.39 26.7599L29.752 25.3979L26.2435 21.8769L21.815 26.3054L31.15 35.6784ZM3.40449 38.2989C2.91515 38.2989 2.50899 38.1373 2.18599 37.8139C1.86265 37.4909 1.70099 37.0848 1.70099 36.5954V30.7759C1.70099 30.5443 1.73832 30.3331 1.81299 30.1424C1.88765 29.9518 2.01632 29.7651 2.19899 29.5824L11.3415 20.4399L1.51649 10.6269C0.993821 10.0966 0.73882 9.48759 0.751487 8.79992C0.764154 8.11225 1.01915 7.50326 1.51649 6.97292L6.87299 1.52842C7.39532 0.997754 8.00032 0.732422 8.68799 0.732422C9.37565 0.732422 9.98465 0.993755 10.515 1.51642L20.44 11.4034L29.2685 2.57492C29.5765 2.26692 29.9198 2.04225 30.2985 1.90092C30.6772 1.75959 31.0577 1.68892 31.44 1.68892C31.8227 1.68892 32.2033 1.75959 32.582 1.90092C32.9607 2.04225 33.304 2.26692 33.612 2.57492L37.425 6.37592C37.733 6.68392 37.9577 7.02725 38.099 7.40592C38.2403 7.78459 38.311 8.16526 38.311 8.54792C38.311 8.93826 38.2403 9.32276 38.099 9.70142C37.9577 10.0801 37.733 10.4234 37.425 10.7314L28.5965 19.5479L38.4835 29.4349C39.0062 29.9653 39.2675 30.5743 39.2675 31.2619C39.2675 31.9496 39.0062 32.5546 38.4835 33.0769L33.089 38.4334C32.5587 38.9561 31.9497 39.2174 31.262 39.2174C30.5743 39.2174 29.9653 38.9561 29.435 38.4334L19.586 28.5849L10.3935 37.7889C10.2108 37.9716 10.0242 38.1023 9.83349 38.1809C9.64315 38.2596 9.43599 38.2989 9.21199 38.2989H3.40449ZM4.97599 35.0239H8.48799L27.7435 15.7064L24.2435 12.1944L4.97599 31.4999V35.0239ZM25.9935 13.9444L24.2435 12.1944L27.7435 15.7064L25.9935 13.9444Z" fill="white"/>
</svg>
