<svg width="73" height="53" viewBox="0 0 73 53" fill="none" xmlns="http://www.w3.org/2000/svg">
<path fill-rule="evenodd" clip-rule="evenodd" d="M47.9964 29.5938C48.3429 32.7865 49.2669 35.3357 50.8757 37.5962C53.0331 40.6116 56.6507 43.429 62.6319 46.4237C63.0157 46.5924 63.3611 46.8373 63.6473 47.1436C63.9335 47.4498 64.1544 47.8111 64.2968 48.2053C64.4391 48.5995 64.4999 49.0186 64.4753 49.437C64.4508 49.8555 64.3415 50.2646 64.154 50.6395C63.9666 51.0144 63.7049 51.3473 63.3848 51.618C63.0648 51.8887 62.6931 52.0915 62.2923 52.2142C61.8915 52.3369 61.47 52.3768 61.0533 52.3316C60.6365 52.2864 60.2334 52.157 59.8682 51.9513C53.4744 48.7585 48.8421 45.3884 45.8432 41.185C42.7866 36.9115 41.6563 32.0976 41.6563 26.5V7.9375C41.6563 6.02297 42.4169 4.18685 43.7706 2.83307C45.1244 1.4793 46.9605 0.71875 48.8751 0.71875H65.3751C67.2896 0.71875 69.1257 1.4793 70.4795 2.83307C71.8333 4.18685 72.5938 6.02297 72.5938 7.9375V22.375C72.5938 26.3598 69.3598 29.5938 65.3751 29.5938H47.9964ZM6.74644 29.5938C7.09294 32.7865 8.01694 35.3357 9.62569 37.5962C11.7831 40.6116 15.4007 43.429 21.3819 46.4237C21.7657 46.5924 22.1111 46.8373 22.3973 47.1436C22.6835 47.4498 22.9044 47.8111 23.0468 48.2053C23.1891 48.5995 23.2499 49.0186 23.2253 49.437C23.2008 49.8555 23.0915 50.2646 22.904 50.6395C22.7166 51.0144 22.4549 51.3473 22.1348 51.618C21.8148 51.8887 21.4431 52.0915 21.0423 52.2142C20.6415 52.3369 20.22 52.3768 19.8033 52.3316C19.3865 52.2864 18.9834 52.157 18.6182 51.9513C12.2244 48.7585 7.59206 45.3884 4.59319 41.185C1.53656 36.9115 0.406311 32.0976 0.406311 26.5V7.9375C0.406311 6.02297 1.16685 4.18685 2.52064 2.83307C3.87441 1.4793 5.71053 0.71875 7.62506 0.71875H24.1251C26.0396 0.71875 27.8757 1.4793 29.2295 2.83307C30.5833 4.18685 31.3438 6.02297 31.3438 7.9375V22.375C31.3438 26.3598 28.1098 29.5938 24.1251 29.5938H6.74644Z" fill="#010101" fill-opacity="0.12"/>
</svg>
